<svg width="16" height="17" viewBox="0 0 16 17" fill="none" xmlns="http://www.w3.org/2000/svg">
<path d="M7.63699 10.0148C7.88715 10.0148 8.08994 10.2191 8.08994 10.4712V14.1876C8.08994 14.4397 7.88715 14.6441 7.63699 14.6441C7.38683 14.6441 7.18403 14.4397 7.18403 14.1876V10.4712C7.18403 10.2191 7.38683 10.0148 7.63699 10.0148Z" fill="black"/>
<path d="M4.60534 10.4712C4.60534 10.2191 4.40254 10.0148 4.15238 10.0148C3.90222 10.0148 3.69942 10.2191 3.69942 10.4712V14.1876C3.69942 14.4397 3.90222 14.6441 4.15238 14.6441C4.40254 14.6441 4.60534 14.4397 4.60534 14.1876V10.4712Z" fill="black"/>
<path d="M11.2322 10.0148C11.4824 10.0148 11.6852 10.2191 11.6852 10.4712V14.1876C11.6852 14.4397 11.4824 14.6441 11.2322 14.6441C10.982 14.6441 10.7792 14.4397 10.7792 14.1876V10.4712C10.7792 10.2191 10.982 10.0148 11.2322 10.0148Z" fill="black"/>
<path fill-rule="evenodd" clip-rule="evenodd" d="M12.0688 3.67573V3.56319C12.0688 3.42697 12.0333 3.29911 11.9711 3.18851C11.9568 3.15638 11.9386 3.12541 11.9163 3.09628L10.4986 1.23982C10.4946 1.23462 10.4906 1.22951 10.4865 1.22449V0.769488C10.4865 0.51741 10.2837 0.313059 10.0335 0.313059C9.78334 0.313059 9.58054 0.51741 9.58054 0.769488V1.28384L8.68064 2.30607V1.9052C8.68064 1.5971 8.43278 1.34734 8.12702 1.34734H7.14658C6.84083 1.34734 6.59297 1.5971 6.59297 1.9052V7.06433H6.20337C6.27977 6.65006 6.2495 6.21849 6.11073 5.81138L6.03588 5.5918C6.00596 5.504 5.96833 5.41886 5.92362 5.33761C5.49409 4.55712 4.51505 4.28568 3.76522 4.7144C3.74493 4.60665 3.74917 4.53709 3.75855 4.50678C3.83255 4.26757 3.69816 4.01126 3.45838 3.9343C3.21859 3.85733 2.96421 3.98886 2.8902 4.22806C2.82103 4.45163 2.83698 4.68479 2.87191 4.87095C1.8664 4.83063 1.04563 5.7225 1.21521 6.75702L1.23679 6.88864C1.24649 6.94787 1.25924 7.00651 1.27495 7.06433H0.503285C0.225329 7.06433 0 7.29139 0 7.57148V8.93195C0 9.21204 0.225329 9.43909 0.503285 9.43909H0.651601L1.50599 14.8415C1.62279 15.5801 2.25489 16.1235 2.99703 16.1235H12.2149C12.9516 16.1235 13.5807 15.5879 13.7036 14.856L14.6136 9.43909H14.7703C15.0483 9.43909 15.2736 9.21204 15.2736 8.93195V7.57148C15.2736 7.29139 15.0483 7.06433 14.7703 7.06433H14.6126C15.2227 5.51786 15.6539 4.05838 15.8605 2.91108C15.972 2.29227 16.0228 1.73924 15.9903 1.30282C15.9741 1.08528 15.9355 0.870853 15.8564 0.684095C15.7761 0.494495 15.6387 0.300085 15.4131 0.195024C15.1875 0.0899625 14.9602 0.114457 14.775 0.180425C14.5926 0.245404 14.4186 0.360802 14.2576 0.495825C13.9347 0.766711 13.5881 1.18199 13.2373 1.68931C12.8608 2.23379 12.4633 2.90812 12.0688 3.67573ZM12.9406 3.9712C13.2919 3.30031 13.6406 2.71514 13.967 2.24321C14.2988 1.76339 14.5934 1.42118 14.8299 1.22275C14.9269 1.14137 15.0015 1.09496 15.0536 1.07072C15.0723 1.1279 15.0909 1.21778 15.1007 1.34888C15.1246 1.66858 15.0887 2.13131 14.9833 2.71657C14.9658 2.81401 14.9464 2.91415 14.9253 3.01684L14.3133 2.73807C14.0854 2.63423 13.8219 2.73838 13.7248 2.97071C13.6278 3.20304 13.7339 3.47555 13.9618 3.5794L14.7107 3.92054C14.5151 4.65558 14.2506 5.47501 13.9238 6.33585C13.8992 6.31788 13.8725 6.30216 13.8438 6.28911L13.1008 5.95065C12.8729 5.84681 12.6094 5.95096 12.5123 6.18329C12.4153 6.41561 12.5214 6.68813 12.7493 6.79198L13.3472 7.06433H11.5392C11.6336 6.84996 11.7472 6.58442 11.879 6.26323C12.0915 5.74568 12.3111 5.25126 12.5329 4.78695L13.3257 5.14812C13.5537 5.25196 13.8172 5.14781 13.9142 4.91548C14.0113 4.68315 13.9052 4.41063 13.6773 4.30679L12.9406 3.9712ZM10.543 7.06433C10.553 7.04294 10.5636 7.02019 10.5747 6.99605C10.6829 6.76138 10.845 6.39608 11.0567 5.88023C11.0919 5.79452 11.1273 5.70935 11.1629 5.62477V3.71533H8.68064V7.06433H10.543ZM10.0406 2.13689L10.5489 2.80247H9.45463L10.0406 2.13689ZM5.2666 7.06433C5.36313 6.75077 5.35866 6.41181 5.25104 6.09608L5.1762 5.8765C5.16364 5.83965 5.14778 5.80374 5.12892 5.76948C4.93736 5.42139 4.48733 5.3151 4.1684 5.54073C3.82652 5.78259 3.40019 5.87536 2.98546 5.79814L2.95617 5.79268C2.4619 5.70065 2.03052 6.12343 2.11193 6.62008L2.1335 6.75169C2.14755 6.83742 2.175 6.92054 2.21482 6.99801L2.24891 7.06433H5.2666ZM7.77472 2.2602V7.06433H7.49888V2.2602H7.77472ZM0.905913 8.52623V7.97719H14.3677V8.52623H0.905913ZM1.57735 9.49221L2.40062 14.6979C2.44734 14.9933 2.70018 15.2107 2.99703 15.2107H12.2149C12.5096 15.2107 12.7612 14.9964 12.8104 14.7037L13.6859 9.49221H1.57735Z" fill="black"/>
</svg>
