<svg width="16" height="16" viewBox="0 0 16 16" fill="none" xmlns="http://www.w3.org/2000/svg">
<path fill-rule="evenodd" clip-rule="evenodd" d="M7.99923 2.26783L7.82823 2.09642C6.03742 0.301195 3.13393 0.301195 1.34311 2.09642C-0.447704 3.89164 -0.447704 6.80226 1.34311 8.59748L2.05813 9.31426L1.86474 9.50812C1.62218 9.75128 1.55982 10.0805 1.60277 10.3723C1.64573 10.6641 1.79457 10.9489 2.02052 11.1754C2.2448 11.4002 2.52636 11.5489 2.81517 11.5932C2.85937 11.8827 3.00766 12.165 3.23193 12.3898C3.45621 12.6146 3.73777 12.7633 4.02659 12.8076C4.07079 13.0971 4.21909 13.3794 4.44337 13.6042C4.66764 13.829 4.94921 13.9777 5.23802 14.022C5.28222 14.3115 5.43052 14.5938 5.6548 14.8186C5.88075 15.0451 6.16486 15.1943 6.45595 15.2374C6.74701 15.2805 7.07544 15.218 7.31801 14.9748L7.53184 14.7604C8.10206 15.1415 8.87784 15.0865 9.38934 14.5912C9.68482 14.3051 9.83638 13.9265 9.84322 13.5455C10.2066 13.539 10.5682 13.3998 10.8498 13.1271C11.1453 12.8411 11.2968 12.4625 11.3037 12.0815C11.667 12.075 12.0287 11.9357 12.3103 11.6631C12.6057 11.377 12.7573 10.9984 12.7641 10.6174C13.1275 10.6109 13.4891 10.4717 13.7707 10.1991C14.0968 9.88332 14.2472 9.45498 14.2221 9.03619L14.6564 8.60076C16.4479 6.80494 16.4479 3.89333 14.6564 2.09751C12.865 0.301685 9.96055 0.301685 8.16913 2.09751L7.99923 2.26783ZM7.18494 2.7413C5.7494 1.30223 3.42194 1.30223 1.98641 2.7413C0.550878 4.18036 0.550878 6.51354 1.98641 7.9526L2.72752 8.69553C2.93299 8.58312 3.16728 8.55768 3.38135 8.58935C3.67244 8.63241 3.95654 8.78162 4.1825 9.00813C4.40677 9.23295 4.55507 9.5152 4.59927 9.80472C4.88808 9.84903 5.16964 9.99769 5.39391 10.2225C5.61819 10.4473 5.76649 10.7296 5.81068 11.0191C6.0995 11.0634 6.38107 11.2121 6.60535 11.4369C6.82962 11.6618 6.97792 11.944 7.02212 12.2335C7.31094 12.2778 7.5925 12.4265 7.81677 12.6513C8.04273 12.8778 8.19157 13.1627 8.23452 13.4545C8.26365 13.6523 8.24435 13.8674 8.15328 14.0612C8.3556 14.137 8.59199 14.0953 8.75731 13.9352C8.98967 13.7102 8.99289 13.338 8.76446 13.109L6.31708 10.6556C6.13943 10.4775 6.13943 10.1888 6.31708 10.0107C6.49472 9.83265 6.78273 9.83265 6.96037 10.0107L9.40776 12.4641C9.63064 12.6876 9.99104 12.6907 10.2178 12.4712C10.4501 12.2462 10.4533 11.8739 10.2249 11.645L7.76852 9.1825C7.59088 9.00442 7.59088 8.7157 7.76852 8.53762C7.94616 8.35954 8.23418 8.35954 8.41182 8.53762L10.8682 11.0001C11.0911 11.2235 11.4515 11.2266 11.6782 11.0071C11.9106 10.7821 11.9138 10.4099 11.6854 10.1809L9.22897 7.71845C9.05133 7.54037 9.05133 7.25165 9.22897 7.07357C9.40662 6.89549 9.69463 6.89549 9.87227 7.07358L12.3287 9.53604C12.5516 9.75946 12.912 9.7626 13.1387 9.54308C13.2887 9.39783 13.3438 9.19112 13.3012 8.99945C13.2979 8.98492 13.2941 8.97052 13.2898 8.95628C13.2633 8.8692 13.2157 8.78693 13.1458 8.71687L9.55894 5.12115C9.21442 5.42656 8.8406 5.6976 8.44274 5.93022C8.13329 6.11114 7.81408 6.26305 7.50042 6.40076C7.37669 6.45507 7.25262 6.51213 7.15306 6.563C7.10308 6.58854 7.06423 6.61 7.03691 6.62669C7.02794 6.63216 7.02175 6.6362 7.01786 6.63882L6.41682 7.24134C5.95029 7.70902 5.1939 7.70902 4.72737 7.24134C4.26084 6.77367 4.26084 6.01541 4.72737 5.54774L7.35593 2.91271L7.18494 2.7413ZM13.8419 8.12759L14.0131 7.95588C15.4493 6.51622 15.4493 4.18206 14.0131 2.74239C12.577 1.30272 10.2486 1.30272 8.81243 2.74239L5.37067 6.19262C5.25942 6.30413 5.25942 6.48494 5.37067 6.59646C5.48191 6.70798 5.66228 6.70798 5.77352 6.59646L6.38699 5.98148C6.44621 5.92212 6.51674 5.87645 6.56352 5.84788C6.61786 5.81469 6.67892 5.78163 6.73996 5.75044C6.86246 5.68785 7.00497 5.62265 7.13546 5.56536C7.43323 5.43463 7.71726 5.2986 7.98439 5.14242C8.43911 4.87656 8.85775 4.55307 9.22997 4.17993L9.63664 3.77226C9.81428 3.59418 10.1023 3.59418 10.2799 3.77226C10.4576 3.95033 10.4576 4.23906 10.2799 4.41714L10.2116 4.48565L13.7891 8.07199C13.8073 8.09017 13.8248 8.10871 13.8419 8.12759ZM3.68374 11.3316C3.67781 11.3375 3.6508 11.3697 3.66422 11.461C3.67765 11.5521 3.73094 11.6719 3.83951 11.7807C3.94807 11.8896 4.06754 11.943 4.15852 11.9565C4.24953 11.9699 4.28165 11.9428 4.28757 11.9369L4.94212 11.2807C4.94804 11.2748 4.97506 11.2426 4.96163 11.1514C4.9482 11.0602 4.89491 10.9404 4.78634 10.8316C4.67777 10.7227 4.55831 10.6693 4.46734 10.6559C4.37634 10.6424 4.34421 10.6695 4.33828 10.6754L3.68374 11.3316ZM3.73071 10.0664C3.73663 10.0604 3.76365 10.0282 3.75022 9.937C3.73679 9.84579 3.6835 9.72603 3.57493 9.6172C3.46636 9.50836 3.34689 9.45493 3.25591 9.44147C3.1649 9.42801 3.13278 9.4551 3.12686 9.46103L2.47232 10.1172C2.4664 10.1231 2.43938 10.1553 2.45281 10.2466C2.46623 10.3378 2.51953 10.4575 2.6281 10.5664C2.73667 10.6752 2.85614 10.7286 2.94711 10.7421C3.03812 10.7555 3.07024 10.7285 3.07617 10.7225L3.73071 10.0664ZM5.54969 11.8898L4.89515 12.546C4.88923 12.5519 4.86221 12.5841 4.87564 12.6753C4.88907 12.7665 4.94237 12.8863 5.05094 12.9952C5.15951 13.104 5.27898 13.1574 5.36996 13.1709C5.46097 13.1843 5.49309 13.1573 5.49901 13.1513L6.15355 12.4952C6.15947 12.4892 6.18649 12.457 6.17306 12.3658C6.15964 12.2746 6.10634 12.1548 5.99777 12.046C5.8892 11.9372 5.76973 11.8837 5.67874 11.8703C5.58773 11.8568 5.55561 11.8839 5.54969 11.8898ZM6.76113 13.1042L6.10658 13.7604C6.10066 13.7663 6.07364 13.7985 6.08708 13.8898C6.1005 13.981 6.1538 14.1007 6.26237 14.2096C6.37094 14.3184 6.49041 14.3718 6.58139 14.3853C6.67239 14.3987 6.70452 14.3717 6.71044 14.3657L7.36498 13.7096C7.3709 13.7036 7.39792 13.6714 7.38449 13.5802C7.37107 13.489 7.31777 13.3692 7.2092 13.2604C7.10063 13.1516 6.98116 13.0981 6.89018 13.0847C6.79917 13.0712 6.76704 13.0983 6.76113 13.1042Z" fill="black"/>
</svg>
