<svg width="16" height="16" viewBox="0 0 16 16" fill="none" xmlns="http://www.w3.org/2000/svg">
<path d="M2.4834 7.10676L2.09621 7.49252C2.35248 4.36597 4.94758 1.90919 8.11116 1.90919C10.3922 1.90919 12.3785 3.18631 13.4052 5.07299C13.5249 5.29304 13.7987 5.37344 14.0167 5.25256C14.2347 5.13168 14.3144 4.85531 14.1946 4.63525C13.0161 2.46954 10.7339 1 8.11116 1C4.43772 1 1.43122 3.88237 1.19028 7.52874L0.766729 7.10676C0.589708 6.93039 0.304561 6.93227 0.129836 7.11095C-0.0448892 7.28964 -0.043028 7.57747 0.133993 7.75383L1.24996 8.86568C1.45779 9.07275 1.79234 9.07275 2.00016 8.86568L3.11613 7.75383C3.29315 7.57747 3.29501 7.28964 3.12029 7.11095C2.94556 6.93227 2.66042 6.93039 2.4834 7.10676Z" fill="black"/>
<path d="M15.866 8.24284C16.043 8.41921 16.0449 8.70703 15.8702 8.88572C15.6954 9.06441 15.4103 9.06628 15.2333 8.88992L14.8099 8.46811C14.5705 12.116 11.5633 15 7.88882 15C5.2652 15 2.98248 13.5295 1.80424 11.3627C1.68456 11.1426 1.7643 10.8663 1.98234 10.7455C2.20038 10.6246 2.47416 10.7051 2.59384 10.9252C3.62027 12.8129 5.60702 14.0908 7.88882 14.0908C11.0536 14.0908 13.6495 11.6321 13.9041 8.50389L13.5166 8.88992C13.3396 9.06628 13.0544 9.06441 12.8797 8.88572C12.705 8.70703 12.7068 8.41921 12.8839 8.24284L13.9998 7.13099C14.2077 6.92393 14.5422 6.92393 14.75 7.13099L15.866 8.24284Z" fill="black"/>
<path fill-rule="evenodd" clip-rule="evenodd" d="M3.53976 9.66056C3.53976 9.15806 3.87055 8.71676 4.34961 8.58014L7.49646 7.68268V7.39629C6.98193 7.19401 6.61751 6.68948 6.61751 6.09855C6.61751 5.3296 7.23507 4.70623 7.99686 4.70623C8.63701 4.70623 9.17414 5.14596 9.33035 5.74167C9.40106 6.01135 9.24181 6.28783 8.97464 6.35921C8.70748 6.43059 8.43358 6.26984 8.36286 6.00016C8.31994 5.83648 8.17165 5.71645 7.99686 5.71645C7.7878 5.71645 7.61832 5.88752 7.61832 6.09855C7.61832 6.29454 7.76493 6.45668 7.95321 6.47818C8.22533 6.50927 8.49726 6.73922 8.49726 7.08678V7.68771L11.6458 8.5896C12.1238 8.72655 12.4538 9.16723 12.4538 9.66887C12.4538 10.289 11.9554 10.7914 11.3411 10.7908L4.65079 10.7833C4.03699 10.7826 3.53976 10.2801 3.53976 9.66056ZM11.3421 9.88156L4.65179 9.87409C4.53505 9.87396 4.44048 9.7784 4.44048 9.66056C4.44048 9.56499 4.50339 9.48106 4.59451 9.45508L7.78493 8.54519C7.91811 8.50721 8.05911 8.50729 8.19225 8.54543L11.3999 9.46425C11.4905 9.49022 11.553 9.57376 11.553 9.66887C11.553 9.78643 11.4586 9.88169 11.3421 9.88156Z" fill="black"/>
</svg>
